name p15_grf_mean_speed_1.6
datacolumns 13
datarows 57
range 0.0000000000 0.5600000000
endheader
time	grf_x_l_mean	grf_x_l_var	grf_y_l_mean	grf_y_l_var	grf_z_l_mean	grf_z_l_var	grf_x_r_mean	grf_x_r_var	grf_y_r_mean	grf_y_r_var	grf_z_r_mean	grf_z_r_var
0.0000000000	152.2014401243	1.0000000000	845.9081195092	1.0000000000	0.0000000000	0.0000000000	14.1861068349	1.0000000000	11.6041101762	1.0000000000	0.0000000000	0.0000000000
0.0100000000	164.2013924349	1.0000000000	828.6184015576	1.0000000000	0.0000000000	0.0000000000	19.5743323020	1.0000000000	55.1444279909	1.0000000000	0.0000000000	0.0000000000
0.0200000000	175.2007391817	1.0000000000	797.2536672189	1.0000000000	0.0000000000	0.0000000000	22.3858068375	1.0000000000	125.7914530844	1.0000000000	0.0000000000	0.0000000000
0.0300000000	183.6241168351	1.0000000000	751.1508786943	1.0000000000	0.0000000000	0.0000000000	16.9162852975	1.0000000000	221.4259685135	1.0000000000	0.0000000000	0.0000000000
0.0400000000	187.8128124328	1.0000000000	689.8785114488	1.0000000000	0.0000000000	0.0000000000	-2.7874637064	1.0000000000	330.6207998330	1.0000000000	0.0000000000	0.0000000000
0.0500000000	184.3172913567	1.0000000000	613.0774883347	1.0000000000	0.0000000000	0.0000000000	-34.8040795594	1.0000000000	437.5639953954	1.0000000000	0.0000000000	0.0000000000
0.0600000000	171.5804920994	1.0000000000	523.2479962492	1.0000000000	0.0000000000	0.0000000000	-69.1971057028	1.0000000000	528.1056466811	1.0000000000	0.0000000000	0.0000000000
0.0700000000	150.7338477812	1.0000000000	426.5190808594	1.0000000000	0.0000000000	0.0000000000	-99.3512612696	1.0000000000	593.0493542495	1.0000000000	0.0000000000	0.0000000000
0.0800000000	121.8393588458	1.0000000000	330.3461846990	1.0000000000	0.0000000000	0.0000000000	-123.7245446958	1.0000000000	631.4842188498	1.0000000000	0.0000000000	0.0000000000
0.0900000000	88.5176223786	1.0000000000	242.1750485194	1.0000000000	0.0000000000	0.0000000000	-141.4195371339	1.0000000000	651.5090062200	1.0000000000	0.0000000000	0.0000000000
0.1000000000	57.9737562537	1.0000000000	168.5678151322	1.0000000000	0.0000000000	0.0000000000	-152.3299305694	1.0000000000	665.3756420105	1.0000000000	0.0000000000	0.0000000000
0.1100000000	33.8510447429	1.0000000000	112.7872179229	1.0000000000	0.0000000000	0.0000000000	-157.7664676879	1.0000000000	682.1683679499	1.0000000000	0.0000000000	0.0000000000
0.1200000000	16.8623796399	1.0000000000	73.1533649009	1.0000000000	0.0000000000	0.0000000000	-159.7904318903	1.0000000000	703.6756007991	1.0000000000	0.0000000000	0.0000000000
0.1300000000	6.4854013946	1.0000000000	45.5799789632	1.0000000000	0.0000000000	0.0000000000	-157.1297362219	1.0000000000	727.0616935953	1.0000000000	0.0000000000	0.0000000000
0.1400000000	1.9095311674	1.0000000000	27.0407066535	1.0000000000	0.0000000000	0.0000000000	-149.8656689409	1.0000000000	749.7231711092	1.0000000000	0.0000000000	0.0000000000
0.1500000000	0.4610866657	1.0000000000	15.5650857717	1.0000000000	0.0000000000	0.0000000000	-140.4952497484	1.0000000000	769.8042971595	1.0000000000	0.0000000000	0.0000000000
0.1600000000	0.9210244731	1.0000000000	8.9980233408	1.0000000000	0.0000000000	0.0000000000	-129.3748443227	1.0000000000	784.3353418043	1.0000000000	0.0000000000	0.0000000000
0.1700000000	2.8186620648	1.0000000000	5.1943983713	1.0000000000	0.0000000000	0.0000000000	-115.9472571982	1.0000000000	790.2475014555	1.0000000000	0.0000000000	0.0000000000
0.1800000000	3.9377634816	1.0000000000	3.2602624106	1.0000000000	0.0000000000	0.0000000000	-102.0426920027	1.0000000000	786.4416374972	1.0000000000	0.0000000000	0.0000000000
0.1900000000	4.1862163207	1.0000000000	2.6995550586	1.0000000000	0.0000000000	0.0000000000	-88.8740724657	1.0000000000	772.9414560318	1.0000000000	0.0000000000	0.0000000000
0.2000000000	4.5395236133	1.0000000000	2.3177998637	1.0000000000	0.0000000000	0.0000000000	-75.4601348871	1.0000000000	750.0843722668	1.0000000000	0.0000000000	0.0000000000
0.2100000000	4.5566861236	1.0000000000	1.6263411807	1.0000000000	0.0000000000	0.0000000000	-62.7612920510	1.0000000000	719.8339827089	1.0000000000	0.0000000000	0.0000000000
0.2200000000	3.7553782726	1.0000000000	1.3218024630	1.0000000000	0.0000000000	0.0000000000	-51.8274274898	1.0000000000	685.4791437524	1.0000000000	0.0000000000	0.0000000000
0.2300000000	3.5835816793	1.0000000000	1.7602265772	1.0000000000	0.0000000000	0.0000000000	-41.9378943128	1.0000000000	649.9065803032	1.0000000000	0.0000000000	0.0000000000
0.2400000000	3.8901519269	1.0000000000	2.0814138515	1.0000000000	0.0000000000	0.0000000000	-32.4392011764	1.0000000000	614.7618892710	1.0000000000	0.0000000000	0.0000000000
0.2500000000	3.6626064899	1.0000000000	1.8184567520	1.0000000000	0.0000000000	0.0000000000	-24.6378595819	1.0000000000	581.5799506461	1.0000000000	0.0000000000	0.0000000000
0.2600000000	3.6385946553	1.0000000000	1.5605678390	1.0000000000	0.0000000000	0.0000000000	-18.4408710973	1.0000000000	552.3193346424	1.0000000000	0.0000000000	0.0000000000
0.2700000000	4.3022504142	1.0000000000	1.4876470966	1.0000000000	0.0000000000	0.0000000000	-12.7837232849	1.0000000000	528.0377791435	1.0000000000	0.0000000000	0.0000000000
0.2800000000	4.3387746635	1.0000000000	0.8772005654	1.0000000000	0.0000000000	0.0000000000	-8.3899704294	1.0000000000	508.4747338339	1.0000000000	0.0000000000	0.0000000000
0.2900000000	0.0000000000	1.0000000000	0.0000000000	1.0000000000	0.0000000000	0.0000000000	-5.3820117863	1.0000000000	493.3541634314	1.0000000000	0.0000000000	0.0000000000
0.3000000000	0.0000000000	1.0000000000	0.0000000000	1.0000000000	0.0000000000	0.0000000000	-2.9342090144	1.0000000000	483.3084319406	1.0000000000	0.0000000000	0.0000000000
0.3100000000	0.0000000000	1.0000000000	0.0000000000	1.0000000000	0.0000000000	0.0000000000	-0.6828200057	1.0000000000	478.8588204604	1.0000000000	0.0000000000	0.0000000000
0.3200000000	0.0000000000	1.0000000000	0.0000000000	1.0000000000	0.0000000000	0.0000000000	0.9337456880	1.0000000000	479.4031567988	1.0000000000	0.0000000000	0.0000000000
0.3300000000	0.0000000000	1.0000000000	0.0000000000	1.0000000000	0.0000000000	0.0000000000	2.7188898101	1.0000000000	484.2911615894	1.0000000000	0.0000000000	0.0000000000
0.3400000000	0.0000000000	1.0000000000	0.0000000000	1.0000000000	0.0000000000	0.0000000000	5.2913424835	1.0000000000	493.5863739113	1.0000000000	0.0000000000	0.0000000000
0.3500000000	0.0000000000	1.0000000000	0.0000000000	1.0000000000	0.0000000000	0.0000000000	8.3631790971	1.0000000000	507.0886829428	1.0000000000	0.0000000000	0.0000000000
0.3600000000	0.0000000000	1.0000000000	0.0000000000	1.0000000000	0.0000000000	0.0000000000	12.4755745522	1.0000000000	524.1035703348	1.0000000000	0.0000000000	0.0000000000
0.3700000000	0.0000000000	1.0000000000	0.0000000000	1.0000000000	0.0000000000	0.0000000000	18.2744047867	1.0000000000	544.5906148911	1.0000000000	0.0000000000	0.0000000000
0.3800000000	0.0000000000	1.0000000000	0.0000000000	1.0000000000	0.0000000000	0.0000000000	25.4099251115	1.0000000000	569.0085217103	1.0000000000	0.0000000000	0.0000000000
0.3900000000	0.0000000000	1.0000000000	0.0000000000	1.0000000000	0.0000000000	0.0000000000	33.7748760514	1.0000000000	596.9277359581	1.0000000000	0.0000000000	0.0000000000
0.4000000000	0.0000000000	1.0000000000	0.0000000000	1.0000000000	0.0000000000	0.0000000000	43.8664919784	1.0000000000	627.4021335195	1.0000000000	0.0000000000	0.0000000000
0.4100000000	0.0000000000	1.0000000000	0.0000000000	1.0000000000	0.0000000000	0.0000000000	55.0399895112	1.0000000000	660.2234681333	1.0000000000	0.0000000000	0.0000000000
0.4200000000	0.0000000000	1.0000000000	0.0000000000	1.0000000000	0.0000000000	0.0000000000	66.5155968979	1.0000000000	695.1824452503	1.0000000000	0.0000000000	0.0000000000
0.4300000000	0.0000000000	1.0000000000	0.0000000000	1.0000000000	0.0000000000	0.0000000000	78.1455339525	1.0000000000	731.0111797991	1.0000000000	0.0000000000	0.0000000000
0.4400000000	0.0000000000	1.0000000000	0.0000000000	1.0000000000	0.0000000000	0.0000000000	89.5964777866	1.0000000000	766.0397244828	1.0000000000	0.0000000000	0.0000000000
0.4500000000	0.0000000000	1.0000000000	0.0000000000	1.0000000000	0.0000000000	0.0000000000	100.3219342053	1.0000000000	798.7400041564	1.0000000000	0.0000000000	0.0000000000
0.4600000000	0.0000000000	1.0000000000	0.0000000000	1.0000000000	0.0000000000	0.0000000000	110.7124322008	1.0000000000	826.9508612715	1.0000000000	0.0000000000	0.0000000000
0.4700000000	0.0000000000	1.0000000000	0.0000000000	1.0000000000	0.0000000000	0.0000000000	121.3369248019	1.0000000000	847.9946613496	1.0000000000	0.0000000000	0.0000000000
0.4800000000	0.0000000000	1.0000000000	0.0000000000	1.0000000000	0.0000000000	0.0000000000	132.0126382155	1.0000000000	860.0447855399	1.0000000000	0.0000000000	0.0000000000
0.4900000000	0.0000000000	1.0000000000	0.0000000000	1.0000000000	0.0000000000	0.0000000000	143.2342292401	1.0000000000	862.0782853447	1.0000000000	0.0000000000	0.0000000000
0.5000000000	13.6436863922	1.0000000000	17.6008308990	1.0000000000	0.0000000000	0.0000000000	155.5029777506	1.0000000000	852.5426995823	1.0000000000	0.0000000000	0.0000000000
0.5100000000	18.6453047981	1.0000000000	64.0490238540	1.0000000000	0.0000000000	0.0000000000	167.9638220450	1.0000000000	829.1666335710	1.0000000000	0.0000000000	0.0000000000
0.5200000000	20.5141541395	1.0000000000	136.0029947321	1.0000000000	0.0000000000	0.0000000000	179.1307183558	1.0000000000	790.0537026654	1.0000000000	0.0000000000	0.0000000000
0.5300000000	14.1797754805	1.0000000000	229.5726050456	1.0000000000	0.0000000000	0.0000000000	187.2365113865	1.0000000000	734.1293843992	1.0000000000	0.0000000000	0.0000000000
0.5400000000	-5.5909145118	1.0000000000	332.6592113787	1.0000000000	0.0000000000	0.0000000000	188.7994093085	1.0000000000	660.9082472309	1.0000000000	0.0000000000	0.0000000000
0.5500000000	-36.6601984451	1.0000000000	432.6311413466	1.0000000000	0.0000000000	0.0000000000	179.9509522020	1.0000000000	571.6952870193	1.0000000000	0.0000000000	0.0000000000
0.5600000000	-69.4501296625	1.0000000000	521.3552067603	1.0000000000	0.0000000000	0.0000000000	160.7872609627	1.0000000000	471.8206628821	1.0000000000	0.0000000000	0.0000000000
